HIERARCHY
ROOT Hips
{
	OFFSET 0.000000 0.000000 0.000000 
	CHANNELS 6 Xposition Yposition Zposition Zrotation Yrotation Xrotation
	JOINT LeftUpLeg
	{
		OFFSET 1.363060 -1.794630 0.839290 
		CHANNELS 3 Zrotation Yrotation Xrotation
		JOINT LeftLeg
		{
			OFFSET 2.448110 -6.726130 0.000000 
			CHANNELS 3 Zrotation Yrotation Xrotation
			JOINT LeftFoot
			{
				OFFSET 2.562200 -7.039590 0.000000 
				CHANNELS 3 Zrotation Yrotation Xrotation
				JOINT LeftToeBase
				{
					OFFSET 0.157640 -0.433110 2.322550 
					CHANNELS 3 Zrotation Yrotation Xrotation
					End Site
					{
						OFFSET 0.000000 0.000000 0.000000 
					}
				}
			}
		}
	}
	JOINT RightUpLeg
	{
		OFFSET -1.305520 -1.794630 0.839290 
		CHANNELS 3 Zrotation Yrotation Xrotation
		JOINT RightLeg
		{
			OFFSET -2.542530 -6.985550 0.000000 
			CHANNELS 3 Zrotation Yrotation Xrotation
			JOINT RightFoot
			{
				OFFSET -2.568260 -7.056230 0.000000 
				CHANNELS 3 Zrotation Yrotation Xrotation
				JOINT RightToeBase
				{
					OFFSET -0.164730 -0.452590 2.363150 
					CHANNELS 3 Zrotation Yrotation Xrotation
					End Site
					{
						OFFSET 0.000000 0.000000 0.000000 
					}
				}
			}
		}
	}
	JOINT Spine
	{
		OFFSET 0.028270 2.035590 -0.193380 
		CHANNELS 3 Zrotation Yrotation Xrotation
		JOINT Spine1
		{
			OFFSET 0.056720 2.048850 -0.042750 
			CHANNELS 3 Zrotation Yrotation Xrotation
			JOINT Neck1
			{
				OFFSET -0.054170 1.746240 0.172020 
				CHANNELS 3 Zrotation Yrotation Xrotation
				JOINT Head
				{
					OFFSET 0.104070 1.761360 -0.123970 
					CHANNELS 3 Zrotation Yrotation Xrotation
					End Site
					{
						OFFSET 0.000000 0.000000 0.000000 
					}
				}
			}
			JOINT LeftArm
			{
				OFFSET 3.362410 1.200890 -0.311210 
				CHANNELS 3 Zrotation Yrotation Xrotation
				JOINT LeftForeArm
				{
					OFFSET 4.983000 -0.000000 -0.000000 
					CHANNELS 3 Zrotation Yrotation Xrotation
					JOINT LeftHand
					{
						OFFSET 3.483560 -0.000000 -0.000000 
						CHANNELS 3 Zrotation Yrotation Xrotation
						JOINT LeftHandIndex1
						{
							OFFSET 0.715260 -0.000000 -0.000000 
							CHANNELS 3 Zrotation Yrotation Xrotation
							End Site
							{
								OFFSET 0.000000 0.000000 0.000000 
							}
						}
					}
				}
			}
			JOINT RightArm
			{
				OFFSET -3.136600 1.374050 -0.404650 
				CHANNELS 3 Zrotation Yrotation Xrotation
				JOINT RightForeArm
				{
					OFFSET -5.241900 -0.000000 -0.000000 
					CHANNELS 3 Zrotation Yrotation Xrotation
					JOINT RightHand
					{
						OFFSET -3.444170 -0.000000 -0.000000 
						CHANNELS 3 Zrotation Yrotation Xrotation
						JOINT RightHandIndex1
						{
							OFFSET -0.622530 -0.000000 -0.000000 
							CHANNELS 3 Zrotation Yrotation Xrotation
							End Site
							{
								OFFSET 0.000000 0.000000 0.000000 
							}
						}
					}
				}
			}
		}
	}
}
MOTION
Frames: 10
Frame Time: 0.041667
-1.169903 18.113654 -1.623529 7.616274 69.779350 40.859845 -21.367882 -18.951526 -43.216769 0.237009 9.592311 23.946915 -8.295896 28.127931 -7.005970 0.173100 -2.679900 -7.388700 -21.571181 33.153725 -48.912473 -0.600313 -10.280385 19.960400 7.330505 -28.634686 2.075304 -0.314500 3.605000 -9.967800 43.114325 -8.747010 33.250806 2.781241 5.372383 -21.954975 -14.504376 0.439933 1.661607 -2.368300 -0.549800 3.534500 -143.246987 -63.297378 98.832660 90.063670 -60.405573 -68.541730 2.504443 0.167667 -38.040858 -7.125000 0.000000 0.000000 104.867278 66.188674 51.451566 -121.112860 56.958725 -86.365337 -2.026698 1.683759 -19.356547 7.125000 0.000000 0.000000 
-1.166882 18.118760 -1.614256 7.404148 69.628068 40.610896 -21.206156 -19.028901 -43.114362 0.227458 9.586130 23.956214 -8.320403 28.171430 -7.442024 0.145700 -2.460200 -6.779400 -21.484369 33.217662 -48.902691 -0.603798 -10.273631 19.917464 7.270239 -28.648528 2.635326 -0.438600 4.249500 -11.779600 43.085498 -8.747962 33.297978 2.845822 5.398261 -21.947449 -14.509086 0.505544 1.649889 -2.354100 -0.520400 3.537300 -143.281926 -63.326071 98.803441 90.246437 -60.435193 -68.654079 2.547804 0.111430 -38.009746 -7.125000 0.000000 0.000000 104.574985 66.419695 51.429672 -120.821001 57.015545 -86.157568 -2.000690 1.685857 -19.554998 7.125000 0.000000 0.000000 
-1.166048 18.120635 -1.603942 7.318134 69.505371 40.514657 -21.188983 -18.970124 -43.067730 0.225538 9.584156 23.975454 -8.322271 28.160196 -7.621163 0.134800 -2.366200 -6.518800 -21.482152 33.289869 -48.897270 -0.600112 -10.270532 19.897350 7.245877 -28.612774 2.734268 -0.460600 4.353400 -12.073000 43.185574 -8.746985 33.223215 2.963837 5.443045 -21.935450 -14.829420 0.513962 1.433223 -2.456100 -0.508600 3.466500 -143.522601 -63.244540 98.801820 90.269489 -60.429542 -68.649995 2.576375 0.068214 -37.745990 -7.125000 0.000000 0.000000 104.249776 66.648313 51.433986 -120.495135 57.077479 -85.925175 -1.975541 1.691987 -19.972039 7.125000 0.000000 0.000000 
-1.166257 18.119593 -1.592585 7.326452 69.388128 40.574839 -21.247906 -18.873955 -43.115927 0.228892 9.584141 23.968245 -8.356932 28.262307 -7.535258 0.157900 -2.560100 -7.056400 -21.548936 33.309905 -48.991272 -0.598011 -10.274338 19.895635 7.215032 -28.536893 2.758292 -0.465500 4.376200 -12.137400 43.271813 -8.753899 33.141615 3.018415 5.463600 -21.918601 -14.971853 0.646111 1.544063 -2.492200 -0.463600 3.516900 -143.818620 -63.014349 98.765592 90.282480 -60.439342 -68.685497 2.582454 0.040486 -37.410701 -7.125000 0.000000 0.000000 103.803543 66.888513 51.190219 -120.369217 57.080900 -85.859062 -1.939529 1.694608 -21.041430 7.125000 0.000000 0.000000 
-1.165840 18.120010 -1.578937 7.229528 69.314998 40.515775 -21.181137 -18.827455 -43.134104 0.227367 9.575133 23.935722 -8.393047 28.361940 -7.495305 0.154500 -2.532700 -6.980400 -21.556827 33.363229 -49.095361 -0.597563 -10.283514 19.917550 7.195294 -28.486171 2.754165 -0.477000 4.429200 -12.287300 43.273555 -8.753761 33.142534 2.967204 5.453969 -21.915393 -14.874005 0.705474 1.707878 -2.445400 -0.449100 3.573600 -144.094138 -62.857854 98.836697 90.430203 -60.482077 -68.795493 2.597781 0.029183 -37.426603 -7.125000 0.000000 0.000000 103.367364 67.127555 50.821443 -120.423441 57.044148 -85.926694 -1.910520 1.670961 -22.547091 7.125000 0.000000 0.000000 
-1.163340 18.122406 -1.564768 7.300407 69.137959 40.542518 -21.237933 -18.738264 -43.095347 0.217451 9.555165 23.904726 -8.387577 28.327854 -7.607201 0.139800 -2.409700 -6.639300 -21.710193 33.534821 -49.158790 -0.605248 -10.298319 19.949811 7.207140 -28.529969 2.729530 -0.494300 4.507400 -12.508900 42.949449 -8.793249 33.467691 2.952764 5.443355 -21.962741 -15.039696 0.688414 1.582895 -2.515700 -0.450100 3.531800 -144.241503 -62.801532 98.950128 90.689518 -60.549989 -68.986494 2.628759 -0.001303 -37.488152 -7.125000 0.000000 0.000000 103.180408 67.438712 50.618317 -120.171961 57.097068 -85.727123 -1.891325 1.652298 -23.257881 7.125000 0.000000 0.000000 
-1.159797 18.124490 -1.550703 7.305147 69.018166 40.588116 -21.206534 -18.763178 -43.060643 0.207502 9.538121 23.860019 -8.420661 28.415927 -7.735685 0.133100 -2.351100 -6.477000 -21.751121 33.561385 -49.228453 -0.605081 -10.305362 19.966331 7.174621 -28.438581 2.741594 -0.483500 4.459100 -12.371900 42.978057 -8.783817 33.467430 2.993311 5.471848 -21.933749 -15.178904 0.687240 1.437877 -2.557700 -0.442100 3.479600 -144.501076 -62.647601 99.048370 90.794316 -60.578001 -69.077030 2.667958 -0.070580 -37.366452 -7.125000 0.000000 0.000000 102.633867 67.739933 50.170840 -119.789043 57.154897 -85.443847 -1.856911 1.662705 -23.420749 7.125000 0.000000 0.000000 
-1.158755 18.127511 -1.538721 7.175007 69.005993 40.503639 -21.079123 -18.799714 -43.011418 0.203835 9.519568 23.796566 -8.488507 28.608084 -7.689776 0.146400 -2.465600 -6.794100 -21.546661 33.431916 -49.254457 -0.611397 -10.308368 19.949634 7.080393 -28.404667 3.444928 -0.644200 5.134700 -14.293200 43.253334 -8.732392 33.242027 2.970934 5.502907 -21.902863 -15.181990 0.675774 1.392928 -2.539000 -0.443600 3.449300 -144.911975 -62.359054 99.128561 90.831919 -60.595899 -69.118514 2.699080 -0.126699 -37.038390 -7.125000 0.000000 0.000000 101.826229 67.937463 49.581836 -119.524532 57.172414 -85.275278 -1.814883 1.674660 -23.638978 7.125000 0.000000 0.000000 
-1.156672 18.129074 -1.527365 6.970071 68.977328 40.355729 -20.968577 -18.749750 -42.984912 0.199575 9.500016 23.737795 -8.531024 28.721348 -7.619469 0.166400 -2.628400 -7.245700 -21.371613 33.355427 -49.306890 -0.614102 -10.311016 19.941082 6.989974 -28.330917 3.987566 -0.799400 5.706600 -15.935400 43.431867 -8.732189 33.073851 2.995253 5.505102 -21.854955 -15.211442 0.739337 1.452274 -2.535800 -0.422900 3.474200 -145.094033 -62.243738 99.041820 90.926119 -60.609518 -69.181584 2.719962 -0.173221 -36.790229 -7.125000 0.000000 0.000000 101.378448 68.144155 49.417251 -119.225132 57.214332 -85.078743 -1.776179 1.680479 -23.965380 7.125000 0.000000 0.000000 
-1.154380 18.132616 -1.513508 6.853943 68.940260 40.264845 -20.898558 -18.695920 -42.947157 0.190148 9.481303 23.700163 -8.532486 28.708485 -7.710421 0.164400 -2.611900 -7.200000 -21.308660 33.382385 -49.347424 -0.609805 -10.314418 19.960997 6.969681 -28.237121 3.911719 -0.805700 5.728400 -15.998400 43.537643 -8.717074 32.998965 3.022981 5.518454 -21.778018 -15.344835 0.792096 1.603463 -2.567400 -0.421400 3.537200 -145.445867 -62.169969 99.240491 90.934792 -60.601982 -69.170217 2.770894 -0.274774 -36.663924 -7.125000 0.000000 0.000000 100.758173 68.454323 49.099854 -118.902274 57.246935 -84.865420 -1.732889 1.692204 -24.244832 7.125000 0.000000 0.000000 
